<svg viewBox="0 0 211 43" xmlns="http://www.w3.org/2000/svg" data-logo="logo">
            <g transform="translate(0, 1.5) rotate(0)" id="logogram" style="opacity: 1;"><path fill="#656565" d="M39.2818 12.0888C38.5315 10.3731 37.5385 8.77418 36.3329 7.34113C34.5511 5.15946 32.3273 3.37988 29.8081 2.11954C27.2889 0.859219 24.5312 0.146696 21.7168 0.0288731C18.9024 -0.0889496 16.0949 0.390598 13.4791 1.43598C10.8634 2.48134 8.49869 4.06883 6.54068 6.09394C4.58265 8.11904 3.0757 10.5359 2.11901 13.1854C1.16232 15.8348 0.777561 18.6569 0.990087 21.4657C1.20263 24.2746 2.0076 27.0066 3.35205 29.4819C4.69651 31.9574 6.54996 34.1199 8.7904 35.8273C10.228 36.9448 11.8165 37.8532 13.5086 38.5256C15.881 39.4978 18.4201 39.9985 20.984 40C26.2764 39.9884 31.3482 37.8787 35.0878 34.1336C38.8273 30.3886 40.9294 25.3137 40.9332 20.0213C40.937 17.2914 40.3748 14.5904 39.2818 12.0888ZM20.9693 4.0826C23.2718 4.08236 25.5464 4.58559 27.6337 5.55704C27.1248 5.77698 26.5895 5.9306 26.0413 6.01413C24.2375 6.27524 22.5665 7.11269 21.2777 8.4015C19.9889 9.6903 19.1514 11.3613 18.8903 13.1652C18.7757 14.1768 18.3156 15.1179 17.5876 15.8298C16.8597 16.5416 15.9085 16.9804 14.8946 17.0724C13.0907 17.3336 11.4197 18.171 10.1309 19.4599C8.84212 20.7487 8.00465 22.4197 7.74355 24.2235C7.65514 25.1854 7.24473 26.0894 6.57874 26.789C5.42963 24.3611 4.91343 21.6817 5.07815 19.0006C5.24288 16.3194 6.08318 13.7235 7.52086 11.4544C8.95853 9.18535 10.9469 7.31682 13.3008 6.02274C15.6548 4.72867 18.2979 4.05112 20.984 4.05311L20.9693 4.0826ZM8.77565 30.3424C8.95259 30.1802 9.12952 30.0328 9.30645 29.8559C10.6182 28.5841 11.4602 26.9053 11.695 25.0934C11.7903 24.0749 12.245 23.1236 12.9778 22.4099C13.683 21.6759 14.6321 21.2249 15.6465 21.1419C17.4504 20.8808 19.1214 20.0433 20.4102 18.7545C21.699 17.4657 22.5365 15.7947 22.7976 13.9909C22.8614 12.9256 23.3185 11.9219 24.0803 11.1747C24.803 10.4549 25.7611 10.0203 26.7786 9.95088C28.4357 9.72288 29.9812 8.98618 31.2019 7.84244C32.5918 8.99556 33.7693 10.3827 34.6816 11.9414C34.6255 12.017 34.5613 12.0863 34.4899 12.1478C33.7861 12.8883 32.8382 13.3492 31.8212 13.4453C30.0154 13.7019 28.3419 14.5379 27.0522 15.8274C25.7627 17.1171 24.9267 18.7906 24.6701 20.5964C24.5662 21.6114 24.1145 22.5593 23.3918 23.2794C22.6689 23.9997 21.7193 24.4477 20.7039 24.5479C18.8947 24.8069 17.2176 25.6428 15.9212 26.931C14.625 28.2194 13.7789 29.8914 13.5086 31.6989C13.4293 32.4195 13.1817 33.1114 12.7861 33.7189C11.2733 32.8207 9.91848 31.68 8.77565 30.3424ZM20.9693 36.0338C19.4732 36.0354 17.9841 35.8269 16.5459 35.4145C17.038 34.4974 17.3578 33.4979 17.4896 32.4656C17.5929 31.4528 18.0425 30.5067 18.7623 29.7868C19.4821 29.067 20.4283 28.6175 21.4411 28.5141C23.2476 28.2559 24.922 27.4198 26.2137 26.1307C27.5053 24.8417 28.345 23.169 28.6069 21.3631C28.7102 20.3503 29.1598 19.4041 29.8796 18.6843C30.5994 17.9645 31.5456 17.5149 32.5584 17.4116C33.9178 17.2348 35.2136 16.7286 36.3329 15.9371C36.9546 18.2931 37.0281 20.7602 36.5482 23.1491C36.0683 25.5379 35.0474 27.7853 33.5641 29.7184C32.0808 31.6514 30.1745 33.2192 27.9911 34.3011C25.8079 35.3831 23.4059 35.9506 20.9693 35.96V36.0338Z"></path></g>
            <g transform="translate(47, 1)" id="logotype" style="opacity: 1;"><path d="M21.47 33L16.27 33L16.27 23.43L6.84 7.54L12.94 7.54L17.25 15.47Q17.91 16.66 18.42 17.84Q18.94 19.02 19.48 20.66L19.48 20.66L18.34 20.66Q18.87 19.00 19.36 17.82Q19.86 16.65 20.49 15.47L20.49 15.47L24.66 7.54L30.75 7.54L21.47 23.43L21.47 33ZM40.04 33.38L40.04 33.38Q37.17 33.38 35.07 32.14Q32.97 30.90 31.83 28.68Q30.69 26.47 30.69 23.53L30.69 23.53Q30.69 20.56 31.83 18.35Q32.97 16.13 35.07 14.89Q37.17 13.65 40.04 13.65L40.04 13.65Q42.93 13.65 45.02 14.89Q47.12 16.13 48.25 18.35Q49.39 20.56 49.39 23.53L49.39 23.53Q49.39 26.47 48.25 28.68Q47.12 30.90 45.02 32.14Q42.93 33.38 40.04 33.38ZM40.04 29.34L40.04 29.34Q41.41 29.34 42.33 28.58Q43.25 27.82 43.72 26.50Q44.18 25.17 44.18 23.52L44.18 23.52Q44.18 21.82 43.72 20.51Q43.25 19.19 42.33 18.44Q41.41 17.69 40.04 17.69L40.04 17.69Q38.67 17.69 37.76 18.44Q36.85 19.19 36.38 20.51Q35.92 21.82 35.92 23.52L35.92 23.52Q35.92 25.17 36.38 26.50Q36.85 27.82 37.76 28.58Q38.67 29.34 40.04 29.34ZM57.27 33.24L57.27 33.24Q55.28 33.24 53.80 32.38Q52.31 31.51 51.50 29.90Q50.69 28.28 50.69 26.04L50.69 26.04L50.69 13.89L55.81 13.89L55.81 25.16Q55.81 26.93 56.74 27.94Q57.66 28.95 59.26 28.95L59.26 28.95Q60.36 28.95 61.20 28.48Q62.03 28.01 62.50 27.11Q62.97 26.22 62.97 24.95L62.97 24.95L62.97 13.89L68.10 13.89L68.10 33L63.26 33L63.20 28.23L63.49 28.23Q62.73 30.64 61.19 31.94Q59.64 33.24 57.27 33.24ZM75.33 33L70.20 33L70.20 13.89L75.16 13.89L75.16 17.23L75.36 17.23Q75.89 15.45 77.13 14.54Q78.37 13.64 79.98 13.64L79.98 13.64Q80.37 13.64 80.82 13.68Q81.27 13.72 81.63 13.81L81.63 13.81L81.63 18.39Q81.29 18.27 80.64 18.20Q79.99 18.13 79.41 18.13L79.41 18.13Q78.25 18.13 77.31 18.64Q76.37 19.14 75.85 20.04Q75.33 20.93 75.33 22.13L75.33 22.13L75.33 33ZM104.51 33L88.31 33L88.31 7.54L93.52 7.54L93.52 28.68L104.51 28.68L104.51 33ZM114.25 33.38L114.25 33.38Q111.38 33.38 109.28 32.14Q107.18 30.90 106.04 28.68Q104.90 26.47 104.90 23.53L104.90 23.53Q104.90 20.56 106.04 18.35Q107.18 16.13 109.28 14.89Q111.38 13.65 114.25 13.65L114.25 13.65Q117.14 13.65 119.23 14.89Q121.33 16.13 122.46 18.35Q123.60 20.56 123.60 23.53L123.60 23.53Q123.60 26.47 122.46 28.68Q121.33 30.90 119.23 32.14Q117.14 33.38 114.25 33.38ZM114.25 29.34L114.25 29.34Q115.62 29.34 116.54 28.58Q117.46 27.82 117.93 26.50Q118.39 25.17 118.39 23.52L118.39 23.52Q118.39 21.82 117.93 20.51Q117.46 19.19 116.54 18.44Q115.62 17.69 114.25 17.69L114.25 17.69Q112.88 17.69 111.97 18.44Q111.06 19.19 110.59 20.51Q110.13 21.82 110.13 23.52L110.13 23.52Q110.13 25.17 110.59 26.50Q111.06 27.82 111.97 28.58Q112.88 29.34 114.25 29.34ZM133.37 40.55L133.37 40.55Q131.00 40.55 129.22 39.95Q127.44 39.34 126.33 38.28Q125.22 37.22 124.79 35.87L124.79 35.87L129.20 34.64Q129.44 35.17 129.95 35.67Q130.45 36.18 131.29 36.50Q132.13 36.83 133.36 36.83L133.36 36.83Q135.32 36.83 136.44 35.93Q137.56 35.03 137.56 33.14L137.56 33.14L137.56 29.62L137.17 29.62Q136.83 30.39 136.18 31.10Q135.53 31.82 134.48 32.27Q133.42 32.73 131.87 32.73L131.87 32.73Q129.72 32.73 127.96 31.72Q126.20 30.71 125.14 28.64Q124.09 26.57 124.09 23.41L124.09 23.41Q124.09 20.18 125.16 18.01Q126.23 15.84 128.00 14.75Q129.77 13.65 131.89 13.65L131.89 13.65Q133.49 13.65 134.59 14.19Q135.68 14.73 136.36 15.54Q137.03 16.35 137.37 17.11L137.37 17.11L137.59 17.11L137.59 13.89L142.64 13.89L142.64 32.85Q142.64 35.43 141.45 37.14Q140.26 38.86 138.18 39.71Q136.09 40.55 133.37 40.55ZM133.48 28.83L133.48 28.83Q134.79 28.83 135.71 28.18Q136.62 27.53 137.10 26.31Q137.58 25.09 137.58 23.38L137.58 23.38Q137.58 21.69 137.10 20.42Q136.62 19.16 135.71 18.46Q134.79 17.76 133.48 17.76L133.48 17.76Q132.13 17.76 131.21 18.48Q130.30 19.21 129.83 20.47Q129.36 21.74 129.36 23.38L129.36 23.38Q129.36 25.05 129.83 26.28Q130.30 27.50 131.22 28.16Q132.14 28.83 133.48 28.83ZM153.28 33.38L153.28 33.38Q150.41 33.38 148.31 32.14Q146.21 30.90 145.07 28.68Q143.93 26.47 143.93 23.53L143.93 23.53Q143.93 20.56 145.07 18.35Q146.21 16.13 148.31 14.89Q150.41 13.65 153.28 13.65L153.28 13.65Q156.17 13.65 158.26 14.89Q160.36 16.13 161.49 18.35Q162.63 20.56 162.63 23.53L162.63 23.53Q162.63 26.47 161.49 28.68Q160.36 30.90 158.26 32.14Q156.17 33.38 153.28 33.38ZM153.28 29.34L153.28 29.34Q154.65 29.34 155.57 28.58Q156.49 27.82 156.96 26.50Q157.42 25.17 157.42 23.52L157.42 23.52Q157.42 21.82 156.96 20.51Q156.49 19.19 155.57 18.44Q154.65 17.69 153.28 17.69L153.28 17.69Q151.91 17.69 151.00 18.44Q150.09 19.19 149.62 20.51Q149.16 21.82 149.16 23.52L149.16 23.52Q149.16 25.17 149.62 26.50Q150.09 27.82 151.00 28.58Q151.91 29.34 153.28 29.34Z" fill="#656565"></path></g>
            
          </svg>