<svg width="16" height="15" viewBox="0 0 16 15" fill="none" xmlns="http://www.w3.org/2000/svg">
<path d="M3.54687 14.5316H2.60937C2.42289 14.5316 2.24405 14.4575 2.11219 14.3257C1.98033 14.1938 1.90625 14.015 1.90625 13.8285V9.60974C1.90625 9.42326 1.98033 9.24442 2.11219 9.11256C2.24405 8.9807 2.42289 8.90662 2.60937 8.90662H3.54687C3.73335 8.90662 3.9122 8.9807 4.04406 9.11256C4.17592 9.24442 4.25 9.42326 4.25 9.60974V13.8285C4.25 14.015 4.17592 14.1938 4.04406 14.3257C3.9122 14.4575 3.73335 14.5316 3.54687 14.5316V14.5316Z"/>
<path d="M10.1094 14.5308H9.17187C8.98539 14.5308 8.80655 14.4567 8.67469 14.3249C8.54283 14.193 8.46875 14.0142 8.46875 13.8277V6.79643C8.46875 6.60995 8.54283 6.43111 8.67469 6.29925C8.80655 6.16739 8.98539 6.09331 9.17187 6.09331H10.1094C10.2959 6.09331 10.4747 6.16739 10.6066 6.29925C10.7384 6.43111 10.8125 6.60995 10.8125 6.79643V13.8277C10.8125 14.0142 10.7384 14.193 10.6066 14.3249C10.4747 14.4567 10.2959 14.5308 10.1094 14.5308V14.5308Z"/>
<path d="M13.3906 14.5312H12.4531C12.2666 14.5312 12.0878 14.4571 11.9559 14.3252C11.8241 14.1934 11.75 14.0145 11.75 13.828V3.51555C11.75 3.32907 11.8241 3.15023 11.9559 3.01836C12.0878 2.8865 12.2666 2.81242 12.4531 2.81242H13.3906C13.5771 2.81242 13.7559 2.8865 13.8878 3.01836C14.0197 3.15023 14.0937 3.32907 14.0937 3.51555V13.828C14.0937 14.0145 14.0197 14.1934 13.8878 14.3252C13.7559 14.4571 13.5771 14.5312 13.3906 14.5312V14.5312Z"/>
<path d="M6.82812 14.531H5.89062C5.70414 14.531 5.5253 14.4569 5.39344 14.3251C5.26158 14.1932 5.1875 14.0144 5.1875 13.8279V1.17163C5.1875 0.98515 5.26158 0.806308 5.39344 0.674446C5.5253 0.542585 5.70414 0.468506 5.89062 0.468506H6.82812C7.0146 0.468506 7.19345 0.542585 7.32531 0.674446C7.45717 0.806308 7.53125 0.98515 7.53125 1.17163V13.8279C7.53125 14.0144 7.45717 14.1932 7.32531 14.3251C7.19345 14.4569 7.0146 14.531 6.82812 14.531V14.531Z"/>
</svg>
