<svg width="18" height="19" viewBox="0 0 18 19" fill="none" xmlns="http://www.w3.org/2000/svg">
<path d="M9.00001 6.53142C8.41285 6.53142 7.83887 6.70553 7.35066 7.03174C6.86245 7.35795 6.48194 7.82161 6.25724 8.36408C6.03255 8.90654 5.97375 9.50346 6.0883 10.0793C6.20285 10.6552 6.4856 11.1842 6.90079 11.5994C7.31597 12.0146 7.84495 12.2973 8.42084 12.4119C8.99672 12.5264 9.59363 12.4676 10.1361 12.2429C10.6786 12.0182 11.1422 11.6377 11.4684 11.1495C11.7946 10.6613 11.9688 10.0873 11.9688 9.50017C11.9664 8.71353 11.6529 7.95978 11.0966 7.40354C10.5404 6.8473 9.78665 6.53377 9.00001 6.53142V6.53142ZM15.4095 9.50017C15.408 9.77757 15.3877 10.0545 15.3487 10.3292L17.1555 11.7438C17.2342 11.8088 17.2873 11.8996 17.3051 12.0001C17.323 12.1006 17.3046 12.2041 17.2531 12.2923L15.5439 15.2432C15.4919 15.3306 15.4108 15.3968 15.3148 15.4303C15.2189 15.4637 15.1142 15.4623 15.0191 15.4262L12.8946 14.5726C12.4522 14.9133 11.9681 15.196 11.4541 15.4139L11.1364 17.6694C11.1186 17.7705 11.0663 17.8622 10.9884 17.9289C10.9105 17.9957 10.8118 18.0333 10.7093 18.0353H7.29075C7.19006 18.0334 7.093 17.9973 7.01542 17.9331C6.93785 17.8689 6.88433 17.7802 6.86362 17.6817L6.54597 15.4262C6.03047 15.2108 5.546 14.9276 5.10538 14.5842L2.98087 15.4377C2.8859 15.4738 2.78123 15.4753 2.68526 15.4419C2.58929 15.4085 2.50816 15.3424 2.45614 15.2551L0.746887 12.3045C0.695438 12.2164 0.677006 12.1128 0.694885 12.0123C0.712764 11.9119 0.765789 11.821 0.844485 11.756L2.65134 10.3414C2.6128 10.0626 2.59247 9.78161 2.59048 9.50017C2.59202 9.22277 2.61236 8.94579 2.65134 8.67114L0.844485 7.25653C0.765789 7.19155 0.712764 7.10071 0.694885 7.00023C0.677006 6.89976 0.695438 6.7962 0.746887 6.70806L2.45614 3.75712C2.5081 3.66976 2.58921 3.60353 2.68518 3.57006C2.78116 3.5366 2.88586 3.53806 2.98087 3.57417L5.10538 4.42769C5.54777 4.08703 6.03189 3.80431 6.54597 3.58642L6.86362 1.33091C6.8814 1.22988 6.93371 1.13816 7.01162 1.07142C7.08953 1.00468 7.18819 0.967071 7.29075 0.965012L10.7093 0.965012C10.81 0.966972 10.907 1.00301 10.9846 1.06724C11.0622 1.13147 11.1157 1.2201 11.1364 1.31866L11.4541 3.57417C11.9702 3.78939 12.4553 4.07257 12.8965 4.41618L15.0191 3.56267C15.1141 3.52652 15.2188 3.52501 15.3148 3.5584C15.4107 3.5918 15.4919 3.65795 15.5439 3.74525L17.2531 6.69618C17.3046 6.78432 17.323 6.88788 17.3051 6.98836C17.2873 7.08883 17.2342 7.17968 17.1555 7.24466L15.3487 8.65927C15.3872 8.93795 15.4075 9.21884 15.4095 9.50017V9.50017Z"/>
</svg>
