<svg clip-rule="evenodd" fill-rule="evenodd" stroke-linejoin="round" stroke-miterlimit="2" viewBox="0 0 24 24" xmlns="http://www.w3.org/2000/svg"><g id="Icon"><path d="m14.75 2v4c0 .966-.783 1.75-1.75 1.75h-2c-.967 0-1.75-.784-1.75-1.75v-4c0-.414.336-.75.75-.75h4c.414 0 .75.336.75.75z"/><path d="m15.75 3.25h1.25c2.071 0 3.75 1.679 3.75 3.75v12c0 2.071-1.679 3.75-3.75 3.75h-10c-2.071 0-3.75-1.679-3.75-3.75v-12c0-2.071 1.679-3.75 3.75-3.75h1.25v2.75c0 1.519 1.231 2.75 2.75 2.75h2c1.519 0 2.75-1.231 2.75-2.75zm-2.343 13.18c1.09-.525 1.843-1.64 1.843-2.93 0-1.794-1.456-3.25-3.25-3.25s-3.25 1.456-3.25 3.25c0 1.29.753 2.405 1.843 2.93-1.702.446-3.087 1.68-3.739 3.288-.155.384.03.822.414.977.383.156.821-.03.977-.413.601-1.484 2.057-2.532 3.755-2.532s3.154 1.048 3.755 2.532c.156.383.594.569.977.413.384-.155.569-.593.414-.977-.652-1.608-2.037-2.842-3.739-3.288zm-1.407-4.68c.966 0 1.75.784 1.75 1.75s-.784 1.75-1.75 1.75-1.75-.784-1.75-1.75.784-1.75 1.75-1.75z"/></g></svg>