<?xml version="1.0" encoding="iso-8859-1"?>
<!-- Generator: Adobe Illustrator 19.0.0, SVG Export Plug-In . SVG Version: 6.00 Build 0)  -->
<svg version="1.1" id="Layer_1" xmlns="http://www.w3.org/2000/svg" xmlns:xlink="http://www.w3.org/1999/xlink" x="0px" y="0px"
	 viewBox="0 0 512 512" style="enable-background:new 0 0 512 512;" xml:space="preserve">
<g>
	<g>
		<g>
			<path d="M224,160h85.333c5.888,0,10.667-4.779,10.667-10.667V64c0-5.888-4.779-10.667-10.667-10.667H224
				c-5.888,0-10.667,4.779-10.667,10.667v85.333C213.333,155.221,218.112,160,224,160z"/>
			<path d="M458.667,117.333H352c-5.888,0-10.667,4.779-10.667,10.667v21.333c0,17.643-14.357,32-32,32H224
				c-17.643,0-32-14.357-32-32V128c0-5.888-4.779-10.667-10.667-10.667h-128C23.915,117.333,0,141.269,0,170.667v234.667
				c0,29.397,23.915,53.333,53.333,53.333h405.333c29.419,0,53.333-23.936,53.333-53.333V170.667
				C512,141.269,488.085,117.333,458.667,117.333z M242.24,382.229c-0.021,0.021-0.064,0.064-0.085,0.085
				C220.949,403.115,191.957,416,160,416c-32.064,0-61.141-12.949-82.347-33.877c0.064,0.064,0.149,0.107,0.213,0.171
				c-0.277-0.256-0.576-0.491-0.853-0.768c-21.205-21.227-34.347-50.539-34.347-82.859c0-64.704,52.651-117.333,117.333-117.333
				s117.333,52.629,117.333,117.333C277.333,331.349,263.872,360.939,242.24,382.229z M458.667,373.333H309.333
				c-5.888,0-10.667-4.779-10.667-10.667S303.445,352,309.333,352h149.333c5.888,0,10.667,4.779,10.667,10.667
				S464.555,373.333,458.667,373.333z M458.667,309.333H309.333c-5.888,0-10.667-4.779-10.667-10.667S303.445,288,309.333,288
				h149.333c5.888,0,10.667,4.779,10.667,10.667S464.555,309.333,458.667,309.333z M458.667,245.333H309.333
				c-5.888,0-10.667-4.779-10.667-10.667S303.445,224,309.333,224h149.333c5.888,0,10.667,4.779,10.667,10.667
				S464.555,245.333,458.667,245.333z"/>
			<path d="M195.563,316.821c10.837-9.771,17.771-23.765,17.771-39.488C213.333,247.872,189.461,224,160,224
				s-53.333,23.872-53.333,53.333c0,15.723,6.933,29.717,17.771,39.488c-17.515,7.659-32.405,20.757-42.24,37.653
				c17.451,24.235,45.717,40.192,77.803,40.192s60.352-15.957,77.803-40.192C227.968,337.579,213.077,324.48,195.563,316.821z"/>
		</g>
	</g>
</g>
<g>
</g>
<g>
</g>
<g>
</g>
<g>
</g>
<g>
</g>
<g>
</g>
<g>
</g>
<g>
</g>
<g>
</g>
<g>
</g>
<g>
</g>
<g>
</g>
<g>
</g>
<g>
</g>
<g>
</g>
</svg>
