<svg id="Capa_1" enable-background="new 0 0 567.6 567.6" height="512" viewBox="0 0 567.6 567.6" width="512" xmlns="http://www.w3.org/2000/svg"><g><g id="Layer_2_00000119820407195131791020000002653782298284365756_"><path d="m542.045 205.999-170.201-98.314c-9.784-4.884-21.675-.913-26.559 8.871-1.371 2.746-2.085 5.774-2.085 8.843v396c0 10.935 8.865 19.8 19.8 19.8h132c40.084-.029 72.571-32.516 72.6-72.6v-221.284c.063-17.52-9.851-33.548-25.555-41.316zm-73.445 256.001h-52.8c-10.935 0-19.8-8.865-19.8-19.8s8.865-19.8 19.8-19.8h52.8c10.935 0 19.8 8.865 19.8 19.8s-8.865 19.8-19.8 19.8zm0-79.2h-52.8c-10.935 0-19.8-8.865-19.8-19.8s8.865-19.8 19.8-19.8h52.8c10.935 0 19.8 8.865 19.8 19.8s-8.865 19.8-19.8 19.8zm0-79.2h-52.8c-10.935 0-19.8-8.865-19.8-19.8s8.865-19.8 19.8-19.8h52.8c10.935 0 19.8 8.865 19.8 19.8s-8.865 19.8-19.8 19.8z"/><path d="m283.8 26.4h-237.6c-25.503.029-46.171 20.697-46.2 46.2v422.4c.029 25.503 20.697 46.171 46.2 46.2h33v-112.2c.029-18.213 14.787-32.971 33-33h105.6c18.213.029 32.971 14.787 33 33v112.2h59.4c10.935 0 19.8-8.865 19.8-19.8v-448.8c-.029-25.503-20.697-46.171-46.2-46.2zm-158.4 290.4h-26.4c-10.935 0-19.8-8.865-19.8-19.8s8.865-19.8 19.8-19.8h26.4c10.935 0 19.8 8.865 19.8 19.8s-8.865 19.8-19.8 19.8zm0-79.2h-26.4c-10.935 0-19.8-8.865-19.8-19.8s8.865-19.8 19.8-19.8h26.4c10.935 0 19.8 8.865 19.8 19.8s-8.865 19.8-19.8 19.8zm0-79.2h-26.4c-10.935 0-19.8-8.865-19.8-19.8s8.865-19.8 19.8-19.8h26.4c10.935 0 19.8 8.865 19.8 19.8s-8.865 19.8-19.8 19.8zm105.6 158.4h-26.4c-10.935 0-19.8-8.865-19.8-19.8s8.865-19.8 19.8-19.8h26.4c10.935 0 19.8 8.865 19.8 19.8s-8.865 19.8-19.8 19.8zm0-79.2h-26.4c-10.935 0-19.8-8.865-19.8-19.8s8.865-19.8 19.8-19.8h26.4c10.935 0 19.8 8.865 19.8 19.8s-8.865 19.8-19.8 19.8zm0-79.2h-26.4c-10.935 0-19.8-8.865-19.8-19.8s8.865-19.8 19.8-19.8h26.4c10.935 0 19.8 8.865 19.8 19.8s-8.865 19.8-19.8 19.8z"/><path d="m118.8 435.6h92.4v105.6h-92.4z"/></g></g></svg>