<svg width="16" height="15" viewBox="0 0 16 15" fill="none" xmlns="http://www.w3.org/2000/svg">
<path d="M14.4933 1.12155C14.4879 1.09564 14.4753 1.07179 14.4569 1.0528C14.4384 1.03381 14.415 1.02046 14.3892 1.01432C12.6733 0.594793 8.70859 2.08981 6.56054 4.23698C6.17742 4.617 5.82815 5.0297 5.5167 5.47038C4.85429 5.41178 4.19189 5.46071 3.62734 5.7068C2.03447 6.40788 1.5707 8.23717 1.4415 9.02409C1.43417 9.06716 1.43694 9.11134 1.44958 9.15316C1.46222 9.19498 1.48439 9.2333 1.51434 9.26511C1.5443 9.29691 1.58123 9.32133 1.62222 9.33644C1.66321 9.35156 1.70715 9.35695 1.75058 9.35221L4.30849 9.07008C4.31032 9.26293 4.32196 9.45556 4.34336 9.64723C4.35623 9.78033 4.41531 9.90472 4.51035 9.99879L5.50087 10.987C5.59503 11.0819 5.71938 11.141 5.85244 11.154C6.04303 11.1753 6.23459 11.1869 6.42636 11.1888L6.1457 13.7435C6.14102 13.7869 6.14646 13.8308 6.16159 13.8718C6.17673 13.9128 6.20115 13.9497 6.23294 13.9796C6.26472 14.0096 6.30302 14.0317 6.34481 14.0444C6.3866 14.0571 6.43076 14.0599 6.47382 14.0526C7.25927 13.9266 9.09179 13.4629 9.78876 11.87C10.0349 11.3054 10.0852 10.6463 10.0284 9.98707C10.4702 9.6756 10.8839 9.32623 11.265 8.94293C13.4198 6.79899 14.9063 2.92272 14.4933 1.12155ZM9.11523 6.38532C8.91847 6.18869 8.78445 5.93812 8.73011 5.66531C8.67577 5.3925 8.70357 5.1097 8.80998 4.85269C8.91639 4.59568 9.09663 4.376 9.3279 4.22143C9.55918 4.06687 9.8311 3.98437 10.1093 3.98437C10.3874 3.98437 10.6594 4.06687 10.8906 4.22143C11.1219 4.376 11.3022 4.59568 11.4086 4.85269C11.515 5.1097 11.5428 5.3925 11.4884 5.66531C11.4341 5.93812 11.3001 6.18869 11.1033 6.38532C10.9728 6.51598 10.8179 6.61963 10.6473 6.69035C10.4768 6.76108 10.2939 6.79748 10.1093 6.79748C9.92462 6.79748 9.74179 6.76108 9.57122 6.69035C9.40065 6.61963 9.2457 6.51598 9.11523 6.38532Z"/>
<path d="M5.43359 11.7028C5.27305 11.8636 5.01553 11.9263 4.70557 11.9799C4.00918 12.0986 3.39424 11.4968 3.51934 10.7928C3.56709 10.5259 3.7083 10.1518 3.79619 10.0639C3.8154 10.0451 3.82819 10.0206 3.83273 9.99413C3.83728 9.96761 3.83336 9.94033 3.82152 9.91617C3.80968 9.892 3.79053 9.87218 3.76679 9.85952C3.74305 9.84686 3.71592 9.84201 3.68926 9.84564C3.29983 9.89329 2.93754 10.0698 2.66006 10.3472C1.97129 11.0366 1.90625 13.5945 1.90625 13.5945C1.90625 13.5945 4.46562 13.5294 5.15439 12.8401C5.43261 12.5628 5.60939 12.2 5.65625 11.81C5.66709 11.6875 5.51797 11.6146 5.43359 11.7028Z"/>
</svg>
