<svg id="Layer_1" enable-background="new 0 0 25 25" height="512" viewBox="0 0 25 25" width="512" xmlns="http://www.w3.org/2000/svg"><g><path d="m.5 6.6h24v-2.4c0-2-1.6-3.6-3.6-3.6h-16.8c-2 0-3.6 1.6-3.6 3.6v2.4zm7.9-4c.5 0 1 .4 1 1s-.5 1-1 1-1-.4-1-1 .5-1 1-1zm-3.9 0c.5 0 1 .4 1 1s-.5 1-1 1c-.6 0-1-.4-1-1s.4-1 1-1z"/><path d="m.5 20.8c0 2 1.6 3.6 3.6 3.6h16.8c2 0 3.6-1.6 3.6-3.6v-12.2h-24zm12-8.6c1.3 0 2.4 1.1 2.4 2.4 0 .8-.5 1.6-1.1 2l.8 3.4c.1.3-.2.6-.5.6h-2.9c-.3 0-.6-.3-.5-.6l.8-3.4c-.7-.4-1.1-1.2-1.1-2-.2-1.4.8-2.4 2.1-2.4z"/></g></svg>