<svg width="14" height="15" viewBox="0 0 14 15" fill="none" xmlns="http://www.w3.org/2000/svg">
<path d="M13.2568 3.53142C13.2231 3.46577 13.1743 3.40902 13.1144 3.3658C13.0546 3.32257 12.9854 3.29409 12.9125 3.28267C12.8395 3.27124 12.7649 3.27721 12.6948 3.30007C12.6246 3.32293 12.5608 3.36205 12.5086 3.41423L10.7086 5.2154C10.6202 5.30248 10.5011 5.3513 10.3771 5.3513C10.253 5.3513 10.1339 5.30248 10.0456 5.2154L9.26745 4.43611C9.22391 4.39258 9.18938 4.3409 9.16581 4.28402C9.14225 4.22714 9.13012 4.16618 9.13012 4.10461C9.13012 4.04305 9.14225 3.98208 9.16581 3.9252C9.18938 3.86833 9.22391 3.81665 9.26745 3.77312L11.0598 1.98044C11.1136 1.92672 11.1534 1.86074 11.176 1.78818C11.1986 1.71563 11.2032 1.63868 11.1894 1.56395C11.1756 1.48923 11.1439 1.41898 11.0969 1.35924C11.0499 1.29951 10.9892 1.25209 10.9198 1.22107V1.22107C9.56599 0.615794 7.87614 0.931614 6.81062 1.98923C5.90534 2.88806 5.63552 4.29255 6.07087 5.84265C6.09434 5.92531 6.09448 6.01286 6.07126 6.09559C6.04804 6.17832 6.00238 6.25302 5.93933 6.3114L1.06199 10.766C0.87198 10.9366 0.718719 11.1441 0.611554 11.3759C0.504389 11.6077 0.445566 11.8588 0.438673 12.1141C0.431781 12.3694 0.476963 12.6234 0.571464 12.8606C0.665965 13.0978 0.807804 13.3133 0.988328 13.4939C1.16885 13.6745 1.38428 13.8164 1.62146 13.9111C1.85865 14.0057 2.11262 14.051 2.36788 14.0442C2.62315 14.0374 2.87436 13.9787 3.10619 13.8716C3.33801 13.7646 3.5456 13.6114 3.71628 13.4215L8.21862 8.53327C8.27617 8.47103 8.3496 8.42567 8.43101 8.40208C8.51243 8.37849 8.59873 8.37756 8.68064 8.39939C9.12195 8.5203 9.57717 8.58304 10.0347 8.58601C11.0133 8.58601 11.8719 8.26931 12.4913 7.65905C13.6383 6.52907 13.8132 4.61247 13.2568 3.53142ZM2.41521 13.1007C2.22226 13.1217 2.02753 13.0824 1.85789 12.988C1.68826 12.8937 1.55208 12.7491 1.46815 12.5741C1.38423 12.399 1.35669 12.2023 1.38934 12.011C1.422 11.8196 1.51323 11.6432 1.65045 11.5059C1.78768 11.3686 1.96412 11.2773 2.15544 11.2446C2.34676 11.2119 2.54351 11.2394 2.71856 11.3232C2.8936 11.4071 3.0383 11.5432 3.13268 11.7128C3.22706 11.8824 3.26648 12.0771 3.24548 12.2701C3.22238 12.4824 3.12749 12.6805 2.97651 12.8315C2.82553 12.9825 2.62751 13.0775 2.41521 13.1007V13.1007Z"/>
</svg>
